<?xml version="1.0" encoding="utf-8"?>
<!-- Svg Vector Icons : http://www.onlinewebfonts.com/icon -->
<!DOCTYPE svg PUBLIC "-//W3C//DTD SVG 1.1//EN" "http://www.w3.org/Graphics/SVG/1.1/DTD/svg11.dtd">
<svg version="1.1" xmlns="http://www.w3.org/2000/svg" xmlns:xlink="http://www.w3.org/1999/xlink" x="0px" y="0px" viewBox="0 0 256 256" enable-background="new 0 0 256 256" xml:space="preserve">
<metadata> Svg Vector Icons : http://www.onlinewebfonts.com/icon </metadata>
<g><g><path fill="#000000" d="M33.2,234.3c-3.1,0-6.1-0.1-9.1-0.3l-13.6-0.9l12-6.4c14.2-7.6,25.3-19.8,31.7-34.7C26,173.8,10,146.7,10,117.4c0-52.7,52.9-95.7,118-95.7c65.1,0,118,42.9,118,95.7c0,52.7-52.9,95.7-118,95.7c-5.1,0-10.2-0.3-15.3-0.8c-12,7.4-25.4,13-39.8,16.8C59.8,232.5,46.5,234.3,33.2,234.3z M128,29.5c-60.7,0-110.1,39.4-110.1,87.9c0,27.5,15.7,53,43.2,69.8l2.7,1.7l-1.1,3c-5.2,13.8-14.2,25.7-25.6,34.6c11.3-0.3,22.7-1.9,33.8-4.9c14.1-3.7,27.1-9.3,38.8-16.6l1.2-0.7l1.4,0.2c5.2,0.6,10.5,0.9,15.7,0.9c60.7,0,110.1-39.4,110.1-87.9C238.1,68.9,188.7,29.5,128,29.5z"/><path fill="#000000" d="M128,138.8c-12,0-21.8-9.7-21.8-21.6S116,95.6,128,95.6c12,0,21.8,9.7,21.8,21.6S140,138.8,128,138.8z M128,103.4c-7.7,0-14,6.2-14,13.8s6.3,13.8,14,13.8c7.7,0,14-6.2,14-13.8S135.7,103.4,128,103.4z"/><path fill="#000000" d="M71.7,138.8c-12,0-21.8-9.7-21.8-21.6s9.8-21.6,21.8-21.6s21.8,9.7,21.8,21.6S83.8,138.8,71.7,138.8z M71.7,103.4c-7.7,0-14,6.2-14,13.8S64,131,71.7,131c7.7,0,14-6.2,14-13.8S79.4,103.4,71.7,103.4z"/><path fill="#000000" d="M184.3,138.8c-12,0-21.8-9.7-21.8-21.6s9.8-21.6,21.8-21.6s21.8,9.7,21.8,21.6S196.3,138.8,184.3,138.8z M184.3,103.4c-7.7,0-14,6.2-14,13.8s6.3,13.8,14,13.8c7.7,0,14-6.2,14-13.8S192,103.4,184.3,103.4z"/></g></g>
</svg>